<?xml version="1.0" standalone="no"?>
<!DOCTYPE svg PUBLIC "-//W3C//DTD SVG 20010904//EN"
 "http://www.w3.org/TR/2001/REC-SVG-20010904/DTD/svg10.dtd">
<svg version="1.0" xmlns="http://www.w3.org/2000/svg"
 width="628.000000pt" height="180.000000pt" viewBox="0 0 628.000000 180.000000"
 preserveAspectRatio="xMidYMid meet">

<g transform="translate(0.000000,180.000000) scale(0.100000,-0.100000)"
fill="#000000" stroke="none">
<path d="M846 1639 c-156 -20 -280 -84 -401 -204 -93 -93 -136 -161 -177 -280
-30 -87 -51 -265 -32 -265 5 0 38 11 74 24 l64 23 13 79 c45 266 268 467 531
479 l67 3 19 66 c10 36 17 68 15 70 -11 10 -112 12 -173 5z"/>
<path d="M2400 1235 l0 -405 130 0 130 0 0 165 0 165 70 0 c45 0 70 4 70 11 0
6 79 112 175 235 96 124 175 227 175 229 0 3 -49 5 -110 5 l-109 0 -3 -137 -3
-138 -132 -3 -133 -3 0 141 0 140 -130 0 -130 0 0 -405z"/>
<path d="M3410 1406 l0 -235 48 -3 47 -3 0 -90 0 -90 -47 -3 -48 -3 0 -75 0
-74 110 0 110 0 0 99 0 98 61 67 c33 36 64 66 67 66 4 -1 43 -75 87 -165 l80
-163 153 -1 c83 -1 152 3 152 7 0 4 -13 28 -28 53 -16 24 -77 125 -137 224
-59 99 -114 190 -122 201 -13 20 -5 31 133 173 l146 151 -168 -1 -169 0 -115
-139 c-63 -76 -121 -139 -127 -139 -10 -1 -13 33 -13 139 l0 140 -110 0 -110
0 0 -234z"/>
<path d="M4710 1235 l0 -405 125 0 125 0 0 405 0 405 -125 0 -125 0 0 -405z"/>
<path d="M5022 1548 l3 -93 128 -3 127 -3 0 -309 0 -310 125 0 125 0 2 311 3
311 120 1 120 2 3 93 3 92 -381 0 -381 0 3 -92z"/>
<path d="M1169 1548 c-91 -334 -107 -403 -96 -410 11 -7 45 -11 114 -12 26 -1
27 2 79 194 28 107 50 198 47 203 -7 11 -106 67 -120 67 -7 0 -17 -19 -24 -42z"/>
<path d="M1380 1420 c-6 -25 -16 -62 -22 -83 -11 -35 -9 -43 30 -115 41 -78
72 -179 72 -239 0 -31 2 -33 69 -53 37 -11 71 -20 75 -20 11 0 7 96 -8 172
-25 127 -80 241 -164 338 l-40 45 -12 -45z"/>
<path d="M3083 1286 c-45 -57 -80 -105 -78 -107 2 -2 42 -3 89 -1 l86 3 0 105
c0 57 -3 104 -7 103 -5 0 -45 -47 -90 -103z"/>
<path d="M825 1318 c-16 -6 -35 -15 -41 -19 -12 -10 -89 -287 -82 -294 3 -3
39 -2 80 1 l75 7 38 141 c21 77 40 149 42 159 5 14 -1 17 -38 16 -24 0 -57 -5
-74 -11z"/>
<path d="M4280 1298 c-1 -2 -1 -40 -2 -86 l-1 -84 159 0 159 0 3 86 3 86 -161
0 c-88 0 -160 -1 -160 -2z"/>
<path d="M1040 1066 c-15 -42 -12 -56 13 -56 12 0 45 -3 74 -6 l51 -7 11 39
c6 21 8 40 6 42 -2 3 -36 7 -74 10 -69 5 -71 4 -81 -22z"/>
<path d="M2930 905 l0 -75 125 0 126 0 -3 73 -3 72 -122 3 -123 3 0 -76z"/>
<path d="M870 909 c-191 -22 -421 -87 -551 -155 l-68 -36 24 -64 c43 -114 115
-215 212 -295 45 -37 161 -105 167 -97 2 1 34 118 71 258 37 140 72 258 77
261 15 10 160 40 166 35 2 -3 -12 -65 -32 -138 -42 -154 -42 -158 -18 -158 18
0 134 28 140 34 1 2 20 67 41 145 21 78 41 144 44 147 3 3 73 8 156 11 l151 6
0 -26 c0 -14 -10 -55 -23 -90 -82 -226 -265 -368 -494 -384 l-83 -6 -11 -41
c-5 -23 -14 -53 -19 -68 -11 -33 0 -38 81 -38 324 0 624 249 691 573 l12 59
61 -5 60 -5 -45 14 c-67 21 -232 52 -342 64 -113 12 -360 11 -468 -1z m-254
-204 c-3 -9 -13 -44 -21 -78 -9 -34 -21 -77 -26 -95 -11 -32 -11 -33 -31 -15
-36 33 -90 113 -85 127 5 12 138 75 161 76 4 0 5 -7 2 -15z"/>
<path d="M2314 665 c-11 -28 4 -45 41 -45 l35 0 0 -125 0 -125 25 0 25 0 0
125 0 125 41 0 c38 0 40 1 37 28 l-3 27 -98 3 c-80 2 -98 0 -103 -13z"/>
<path d="M2560 525 l0 -155 30 0 30 0 0 65 0 65 45 0 45 0 0 -65 0 -65 30 0
31 0 -3 153 -3 152 -27 3 c-28 3 -28 3 -28 -57 l0 -61 -45 0 -45 0 0 60 0 60
-30 0 -30 0 0 -155z"/>
<path d="M2830 525 l0 -155 101 0 100 0 -3 28 c-3 26 -5 27 -70 30 l-68 3 0
39 0 40 60 0 c57 0 60 1 60 25 0 24 -3 25 -60 25 l-60 0 0 30 0 30 65 0 65 0
0 30 0 30 -95 0 -95 0 0 -155z"/>
<path d="M3197 673 c-4 -3 -7 -73 -7 -155 l0 -148 101 0 100 0 -3 28 c-3 26
-5 27 -70 30 l-68 3 0 39 0 40 60 0 c57 0 60 1 60 25 0 24 -3 25 -60 25 l-60
0 0 30 0 30 65 0 65 0 0 30 0 30 -88 0 c-49 0 -92 -3 -95 -7z"/>
<path d="M3430 650 c0 -28 3 -30 35 -30 l35 0 0 -125 0 -125 30 0 30 0 0 125
0 125 35 0 c32 0 35 2 35 30 l0 30 -100 0 -100 0 0 -30z"/>
<path d="M3677 673 c-4 -3 -7 -73 -7 -155 l0 -148 30 0 30 0 0 65 0 65 45 0
45 0 0 -65 0 -65 30 0 31 0 -3 153 -3 152 -27 3 c-28 3 -28 3 -28 -57 l0 -61
-45 0 -45 0 0 60 c0 56 -1 60 -23 60 -13 0 -27 -3 -30 -7z"/>
<path d="M3940 525 l0 -155 25 0 25 0 0 155 0 155 -25 0 -25 0 0 -155z"/>
<path d="M4102 664 c-36 -25 -54 -72 -54 -139 0 -75 21 -120 66 -142 61 -29
121 -4 145 60 10 25 8 29 -16 38 -19 7 -29 7 -31 0 -2 -6 -11 -20 -21 -32 -13
-17 -24 -20 -44 -15 -50 12 -61 132 -16 177 25 25 35 24 63 -6 24 -26 42 -31
63 -17 17 11 -12 67 -43 81 -35 16 -86 14 -112 -5z"/>
<path d="M4345 538 c-25 -78 -45 -148 -45 -156 0 -9 10 -12 27 -10 21 2 29 10
37 36 8 30 11 32 56 32 45 0 48 -2 56 -32 8 -28 15 -34 43 -36 25 -3 32 0 29
10 -3 7 -26 77 -52 156 -47 139 -48 142 -76 142 -29 0 -30 -3 -75 -142z m93
-5 c11 -32 10 -33 -17 -33 -28 0 -28 0 -18 40 12 43 19 42 35 -7z"/>
<path d="M4590 526 l0 -156 90 0 90 0 0 30 c0 30 0 30 -60 30 l-59 0 -3 123
-3 122 -27 3 -28 3 0 -155z"/>
<path d="M4900 678 c0 -5 50 -263 55 -285 4 -18 12 -23 35 -23 32 0 36 8 61
140 14 73 16 71 44 -63 l17 -78 31 3 31 3 28 135 c35 173 35 172 1 168 -27 -3
-29 -7 -43 -85 -8 -46 -17 -83 -21 -83 -3 0 -12 33 -19 74 -15 91 -20 98 -55
94 -31 -3 -36 -13 -55 -112 -14 -70 -22 -62 -39 42 -12 70 -14 72 -42 72 -16
0 -29 -1 -29 -2z"/>
<path d="M5276 536 c-25 -79 -46 -149 -46 -155 0 -6 13 -11 30 -11 25 0 30 4
36 35 6 34 7 35 54 35 45 0 48 -2 56 -32 8 -27 15 -34 42 -36 18 -2 32 -2 32
0 0 2 -22 71 -50 153 -48 146 -50 150 -78 153 l-30 3 -46 -145z m94 -8 c8 -26
7 -28 -20 -28 -19 0 -28 4 -25 13 20 57 28 71 32 57 3 -8 8 -27 13 -42z"/>
<path d="M5460 674 c0 -4 20 -44 45 -90 40 -74 45 -89 45 -148 l0 -66 30 0 30
0 0 65 c0 56 6 76 40 145 22 44 40 84 40 90 0 5 -13 10 -28 10 -24 0 -32 -7
-52 -50 -13 -27 -26 -50 -29 -50 -3 0 -17 21 -31 48 -21 39 -30 47 -57 50 -18
2 -33 0 -33 -4z"/>
</g>
</svg>
