<?xml version="1.0" standalone="no"?>
<!DOCTYPE svg PUBLIC "-//W3C//DTD SVG 20010904//EN"
 "http://www.w3.org/TR/2001/REC-SVG-20010904/DTD/svg10.dtd">
<svg version="1.0" xmlns="http://www.w3.org/2000/svg"
 width="354.000000pt" height="241.000000pt" viewBox="0 0 354.000000 241.000000"
 preserveAspectRatio="xMidYMid meet">

<g transform="translate(0.000000,241.000000) scale(0.100000,-0.100000)"
fill="#000000" stroke="none">
<path d="M1709 2115 c-96 -82 -106 -95 -169 -210 -24 -44 -53 -93 -65 -110
-12 -16 -44 -76 -70 -133 -45 -95 -47 -105 -37 -140 6 -20 32 -60 57 -89 25
-28 45 -54 45 -56 0 -3 -8 -8 -17 -10 -10 -2 -6 -3 8 -1 22 2 41 -12 115 -94
99 -109 178 -182 111 -103 -34 41 -39 56 -28 99 1 2 13 -10 27 -27 14 -17 46
-43 69 -57 62 -36 69 -47 45 -69 -25 -23 -19 -71 16 -123 13 -19 24 -39 24
-43 0 -5 16 -9 36 -9 l37 0 -6 43 c-4 23 -9 54 -13 70 -3 15 -2 27 3 27 4 0
14 -26 22 -57 22 -98 3 -91 235 -87 201 4 206 3 217 -18 10 -19 8 -112 -3
-123 -11 -12 -36 8 -57 45 -33 60 -46 63 -210 59 -80 -2 -307 -4 -505 -4
l-359 0 -19 -26 c-21 -28 -33 -98 -46 -274 -5 -55 -11 -106 -16 -113 -4 -7 -2
-27 4 -45 10 -27 9 -39 -8 -76 -26 -58 -18 -84 41 -120 26 -17 47 -35 47 -40
0 -5 -16 -25 -36 -45 l-36 -36 27 -10 c14 -5 45 -10 67 -10 49 0 151 -16 231
-36 36 -9 77 -12 112 -8 46 6 60 3 97 -18 24 -14 56 -28 72 -32 25 -6 28 -5
17 8 -7 8 -26 18 -42 21 -56 13 -28 24 59 24 48 0 137 7 197 16 372 52 339 54
343 -17 2 -32 7 -58 12 -58 5 0 8 24 5 55 -4 48 -10 60 -40 86 -54 48 -55 72
-6 118 45 41 52 75 26 121 -19 33 -20 106 -1 113 10 4 16 -5 21 -33 4 -22 4
-44 1 -49 -13 -20 14 -20 48 0 42 25 51 46 37 96 -6 21 -11 66 -11 101 0 50 3
62 16 62 11 0 15 -8 13 -28 -5 -61 2 -79 49 -129 47 -50 49 -51 104 -49 30 1
62 7 69 13 24 19 173 93 189 93 31 -1 135 -66 158 -100 l24 -35 -7 35 c-9 42
-45 91 -63 85 -7 -3 -36 5 -64 16 -29 11 -63 19 -75 16 -13 -2 -23 0 -23 4 0
5 6 9 13 10 58 5 141 -17 131 -34 -5 -9 -4 -9 6 0 18 17 6 29 -58 58 -49 23
-66 26 -122 22 -51 -4 -60 -3 -42 5 12 6 22 15 22 20 0 13 -41 10 -99 -8 -29
-8 -55 -13 -58 -11 -3 4 96 74 144 101 16 9 71 -23 78 -45 3 -9 16 -25 28 -35
22 -19 22 -19 5 2 -25 29 -22 36 7 22 14 -6 25 -17 25 -25 0 -7 5 -13 10 -13
22 0 13 15 -87 154 -35 47 -69 100 -76 118 -8 18 -31 53 -51 78 -20 25 -53 65
-72 90 -121 158 -147 190 -155 190 -5 0 -34 12 -66 26 -59 27 -160 64 -175 64
-4 0 -8 -7 -8 -15 0 -11 11 -15 36 -15 53 0 224 -79 224 -104 0 -16 -5 -17
-37 -11 -21 4 -43 11 -50 16 -8 7 -13 4 -15 -8 -3 -13 -11 -5 -28 30 -13 26
-29 47 -36 47 -24 0 -23 -54 2 -107 24 -49 24 -54 10 -82 -9 -17 -16 -36 -16
-44 0 -8 -7 -20 -15 -27 -13 -10 -15 -9 -15 11 -1 22 -12 57 -35 113 -6 14 -5
17 3 12 16 -10 15 3 -3 34 -20 36 -18 49 9 56 14 3 27 12 30 20 4 10 -5 9 -34
-6 -22 -11 -40 -27 -40 -35 0 -9 -6 -12 -15 -9 -25 10 -15 71 22 146 18 37 33
81 33 97 0 40 -49 95 -114 128 -28 14 -80 43 -116 64 -97 56 -132 63 -250 45
-54 -8 -107 -19 -117 -24 -31 -17 -223 -70 -223 -62 0 6 93 67 180 120 8 5 35
15 60 23 25 8 54 17 65 21 17 7 17 5 -4 -13 -21 -19 -21 -21 -5 -28 24 -9 97
12 144 42 33 21 41 23 46 11 3 -8 22 -22 42 -31 43 -19 98 -55 130 -87 12 -12
22 -19 22 -15 0 15 -33 57 -45 57 -7 0 -24 11 -39 25 -15 14 -38 28 -51 31
-15 4 -22 11 -18 20 7 20 -43 65 -65 58 -9 -4 -1 4 18 17 l35 22 -35 14 c-19
8 -52 26 -73 40 -24 17 -51 26 -77 26 -22 0 -37 3 -35 7 8 13 60 19 73 8 9 -8
12 1 12 40 0 28 4 62 10 76 6 16 6 27 0 31 -6 4 -10 1 -10 -5 0 -7 -6 -10 -12
-7 -7 2 -12 11 -10 21 2 9 2 16 0 16 -2 0 -42 -34 -89 -75z m436 -903 c-12
-13 -24 22 -12 37 10 12 13 11 15 -8 2 -13 1 -26 -3 -29z m424 -63 c28 -33 51
-66 51 -71 0 -6 16 -26 35 -45 54 -52 69 -88 54 -125 -7 -17 -26 -38 -42 -48
-26 -16 -32 -17 -68 -2 -43 16 -43 26 -2 37 37 9 63 33 63 59 -1 19 -2 19 -13
5 -7 -8 -36 -32 -65 -53 -63 -44 -57 -21 12 42 25 23 46 47 46 52 0 19 -49 10
-78 -15 -37 -31 -37 -31 -79 1 -35 27 -45 51 -15 39 39 -16 49 -15 90 16 l42
31 -50 64 c-27 35 -50 66 -50 69 0 17 25 -3 69 -56z m-739 -53 c0 -3 -4 -8
-10 -11 -5 -3 -10 -1 -10 4 0 6 5 11 10 11 6 0 10 -2 10 -4z m46 -143 c-2 -3
-9 -2 -15 2 -8 4 -7 13 1 28 l13 22 3 -23 c2 -13 1 -26 -2 -29z m859 -81 c-33
-17 -39 -12 -19 17 13 18 19 20 31 10 12 -11 11 -15 -12 -27z m-326 -118 c1
-54 -9 -105 -20 -98 -11 6 -12 83 -2 150 7 46 8 47 14 19 4 -16 7 -49 8 -71z
m223 13 c-26 -28 -29 -49 -6 -40 12 4 15 2 12 -8 -3 -8 -24 -17 -49 -20 -24
-4 -54 -10 -66 -14 -34 -11 -28 8 10 28 17 10 50 33 72 51 44 38 61 39 27 3z
m-264 -17 c2 -13 -1 -41 -7 -62 -9 -28 -9 -43 -1 -59 15 -28 5 -70 -15 -63
-12 5 -15 26 -15 103 0 54 3 101 7 105 12 12 28 0 31 -24z m278 -155 c-11 -8
-27 -15 -35 -15 -13 1 -12 4 3 15 11 8 27 15 35 15 13 -1 12 -4 -3 -15z m142
-17 c-7 -21 -55 -33 -72 -19 -23 20 -10 31 35 31 28 0 39 -4 37 -12z"/>
<path d="M2670 978 c0 -18 18 -34 28 -24 3 4 -2 14 -11 23 -16 16 -17 16 -17
1z"/>
<path d="M1860 2160 c0 -5 -3 -15 -6 -23 -3 -10 14 -27 54 -53 68 -45 146
-113 138 -121 -3 -3 -27 6 -53 20 -27 13 -64 29 -83 35 -19 5 -43 13 -52 17
-10 4 -18 3 -18 -3 0 -14 75 -57 142 -82 53 -19 109 -67 121 -102 11 -30 -10
-20 -59 27 -46 45 -59 51 -81 37 -15 -9 56 -81 123 -126 23 -15 52 -38 65 -52
20 -21 21 -27 9 -35 -12 -8 -10 -14 15 -34 16 -13 31 -23 32 -21 6 5 -26 87
-66 170 -21 45 -50 106 -64 136 -31 69 -113 160 -172 193 -25 14 -45 22 -45
17z"/>
<path d="M1259 1334 c-48 -20 -119 -78 -119 -97 0 -5 -30 -43 -66 -85 -68 -78
-81 -97 -154 -220 -23 -40 -54 -81 -67 -92 -20 -16 -22 -22 -13 -39 13 -25 19
-26 49 -5 28 20 72 13 121 -20 19 -12 52 -29 73 -35 51 -17 46 -43 -9 -55 -33
-7 -49 -4 -85 14 -24 12 -51 28 -59 35 -8 7 -26 16 -40 20 -54 15 45 -53 123
-85 42 -17 77 -36 77 -41 0 -11 -3 -11 -36 1 -21 8 -32 7 -51 -6 -19 -12 -37
-14 -69 -9 -61 9 -69 -1 -29 -37 19 -16 35 -37 35 -46 0 -13 -4 -12 -22 4 -56
49 -114 78 -165 82 -29 3 -53 8 -53 13 0 16 87 59 118 59 17 0 56 -12 86 -27
30 -15 61 -23 70 -20 23 9 13 23 -21 32 -15 3 -42 20 -60 36 -23 20 -44 29
-68 29 -37 0 -47 16 -17 28 13 5 17 14 12 32 -5 22 -12 16 -68 -64 -34 -49
-62 -95 -62 -102 0 -8 -12 -21 -26 -30 -37 -25 -104 -128 -104 -161 0 -15 -4
-43 -10 -62 -14 -49 13 -141 41 -141 11 0 32 -6 47 -14 15 -8 63 -17 107 -21
44 -3 101 -13 126 -21 35 -11 53 -12 74 -4 34 13 74 6 140 -26 28 -13 42 -18
33 -10 -24 18 -23 30 2 23 24 -6 38 12 19 24 -10 6 -11 9 -1 9 6 0 12 9 12 20
0 13 -6 20 -17 19 -12 0 -13 -2 -5 -6 22 -9 -7 -33 -41 -33 -34 0 -93 55 -103
96 -16 62 27 97 118 97 21 0 38 4 38 8 0 12 -39 11 -100 -2 -38 -8 -63 -22
-95 -53 -48 -46 -63 -86 -48 -127 l10 -27 -68 35 c-64 32 -68 37 -63 61 9 37
19 54 44 77 20 18 22 18 31 2 11 -18 49 -24 49 -7 0 6 -9 10 -20 10 -11 0 -20
4 -20 10 0 17 61 42 106 42 26 0 42 4 38 9 -3 6 -39 7 -90 3 -81 -7 -85 -6
-107 18 -13 14 -31 29 -41 35 -11 6 -16 15 -12 22 13 20 62 12 121 -19 63 -33
86 -34 33 -2 -18 11 -48 37 -65 57 -32 36 -33 36 -95 31 -61 -6 -62 -5 -33 9
55 26 94 19 135 -24 21 -22 52 -46 69 -55 17 -9 31 -21 31 -26 0 -5 15 -16 34
-24 18 -8 37 -19 40 -25 4 -6 16 -11 26 -11 14 0 22 13 34 54 9 29 23 59 31
66 12 10 15 37 15 124 l0 111 -42 23 c-52 26 -122 45 -165 44 -31 -1 -32 0
-22 26 6 15 16 34 24 42 7 8 22 34 34 57 21 42 38 60 48 49 3 -3 0 -19 -7 -35
-13 -32 -7 -81 11 -81 6 0 6 6 -1 19 -5 11 -10 26 -10 33 1 17 23 -22 25 -43
1 -9 25 -40 54 -70 l53 -54 -7 55 c-4 39 -3 60 7 72 16 20 88 51 88 37 0 -5
11 -9 25 -9 22 0 25 4 25 33 0 23 8 41 26 58 44 41 62 81 63 137 0 29 3 58 6
63 20 32 41 -25 24 -68 -13 -34 -12 -38 4 -38 6 -1 11 -7 9 -15 -3 -14 -12
-24 -79 -76 -21 -16 -27 -31 -29 -64 l-2 -42 45 6 c25 3 56 6 68 6 21 0 22 2
17 103 -4 101 8 165 28 152 5 -3 10 -27 10 -53 0 -26 7 -56 15 -66 22 -29 19
-56 -5 -56 -17 0 -20 -7 -20 -39 0 -39 1 -40 43 -45 23 -4 71 -5 107 -3 36 2
81 5 101 5 36 2 37 3 41 48 3 41 0 51 -27 78 -16 18 -46 56 -65 84 -19 29 -43
62 -53 75 -18 22 -18 21 -2 -10 8 -18 15 -37 15 -44 0 -15 -49 -3 -72 17 -21
19 -62 129 -53 143 8 13 -15 14 -35 1 -14 -9 -44 6 -36 19 10 15 -110 4 -155
-15z m119 -12 c2 -7 -2 -10 -12 -6 -11 4 -16 0 -17 -12 0 -17 -1 -17 -11 2 -7
15 -17 20 -36 17 -22 -4 -24 -2 -12 6 20 15 82 10 88 -7z m-168 -84 c0 -6 -7
-5 -15 2 -8 7 -15 17 -15 22 0 6 7 5 15 -2 8 -7 15 -17 15 -22z m-13 -32 c-6
-17 -41 -13 -45 5 -2 13 3 15 23 11 14 -2 24 -10 22 -16z m-99 -335 c3 -8 -1
-12 -9 -9 -7 2 -15 10 -17 17 -3 8 1 12 9 9 7 -2 15 -10 17 -17z m-228 -55 c0
-3 -4 -8 -10 -11 -5 -3 -10 -1 -10 4 0 6 5 11 10 11 6 0 10 -2 10 -4z m-40
-276 c0 -7 -66 -2 -90 7 -12 4 -11 7 5 12 19 8 85 -7 85 -19z m-170 15 c0 -7
-54 -55 -58 -50 -7 7 33 54 46 55 6 0 12 -2 12 -5z m60 -91 c-8 -8 -23 -20
-34 -25 -15 -7 -13 -3 7 15 31 29 47 35 27 10z m-70 -61 c-4 -16 -11 -35 -15
-44 -3 -10 -2 -20 4 -24 6 -3 11 1 11 9 0 10 9 16 21 16 29 0 19 -21 -24 -49
-20 -13 -37 -33 -37 -43 0 -10 -7 -18 -15 -18 -16 0 -20 16 -6 24 4 3 11 25
15 48 6 36 40 108 51 108 2 0 0 -12 -5 -27z m118 -10 c-12 -15 -68 -17 -68 -3
0 6 6 10 14 10 7 0 19 7 26 15 9 11 15 12 25 2 9 -8 10 -16 3 -24z m88 12
c-11 -8 -25 -15 -30 -15 -6 0 -2 7 8 15 11 8 25 15 30 15 6 0 2 -7 -8 -15z
m-272 -57 c-13 -46 -23 -55 -24 -22 0 31 6 44 22 44 5 0 6 -10 2 -22z m185
-27 c-6 -18 -9 -48 -6 -67 5 -30 4 -34 -8 -24 -8 7 -15 22 -16 34 0 21 0 21
-9 -1 -6 -15 -18 -23 -34 -23 -32 0 -56 10 -56 22 0 6 7 4 17 -3 13 -11 17
-11 20 -2 9 25 88 112 96 104 4 -4 2 -22 -4 -40z m196 -111 c-3 -5 -11 -10
-16 -10 -6 0 -7 5 -4 10 3 6 11 10 16 10 6 0 7 -4 4 -10z"/>
<path d="M1720 1161 c0 -5 9 -11 21 -14 16 -4 18 -3 8 9 -13 16 -29 19 -29 5z"/>
<path d="M1670 1144 c0 -9 93 -95 97 -90 2 2 -3 21 -12 42 -11 26 -18 35 -24
26 -6 -10 -14 -8 -34 8 -15 12 -27 18 -27 14z"/>
<path d="M1767 1003 c-11 -10 -8 -63 3 -63 6 0 10 16 10 35 0 36 -2 40 -13 28z"/>
<path d="M1797 967 c3 -15 9 -27 14 -27 13 0 11 13 -5 35 -13 18 -14 18 -9 -8z"/>
<path d="M957 906 c-4 -9 8 -24 34 -41 32 -20 38 -22 31 -8 -6 10 -21 28 -35
41 -20 19 -26 20 -30 8z"/>
<path d="M966 755 c-16 -12 -17 -15 -4 -15 9 0 18 7 22 15 7 18 6 18 -18 0z"/>
<path d="M2834 535 c-18 -14 -18 -15 7 -6 28 10 59 -2 59 -24 0 -8 18 -35 41
-61 42 -48 111 -178 101 -188 -15 -15 -31 -3 -34 27 -2 17 -8 32 -14 32 -6 0
-37 29 -70 64 -32 35 -75 71 -94 79 -19 7 -43 21 -53 30 -14 13 -20 13 -30 2
-8 -9 -9 -11 0 -6 6 3 14 2 18 -4 4 -6 27 -21 53 -34 45 -23 80 -61 123 -134
15 -26 24 -32 40 -27 15 5 20 3 17 -6 -5 -15 -76 -24 -114 -15 -12 3 -43 22
-68 41 -52 39 -58 37 -21 -7 32 -38 32 -50 -2 -46 -22 2 -28 8 -29 28 -2 49
-22 76 -85 114 -74 44 -125 55 -154 32 -19 -14 -17 -14 20 -9 33 4 54 -2 114
-33 l75 -38 -30 -13 c-16 -6 -34 -12 -41 -13 -7 0 -10 -7 -7 -15 5 -13 8 -13
27 0 24 17 53 20 62 5 7 -11 -30 -36 -68 -45 -24 -7 -28 -4 -33 24 -4 17 -10
31 -15 31 -12 0 -11 -17 2 -43 9 -16 9 -22 0 -25 -6 -2 -11 -10 -11 -18 0 -8
-7 -14 -15 -14 -11 0 -15 12 -15 50 0 53 -13 73 -75 111 -32 20 -105 26 -105
9 0 -5 13 -10 29 -10 23 0 34 -8 50 -36 29 -48 27 -93 -4 -127 -29 -30 -46
-32 -90 -13 l-30 13 35 11 c24 7 28 10 13 11 -38 2 -53 -10 -53 -40 0 -37 16
-43 71 -29 24 7 91 14 149 16 196 8 235 12 335 28 134 23 135 23 150 59 11 28
11 35 -5 57 -9 14 -30 49 -45 78 -19 37 -37 57 -60 66 -31 13 -56 37 -38 36
38 -2 121 -88 146 -150 3 -8 5 1 4 21 -1 24 -6 35 -14 32 -7 -3 -20 11 -30 31
-12 27 -34 46 -79 71 -70 39 -82 41 -110 20z m-274 -225 c0 -17 -19 -40 -32
-40 -5 0 -6 10 -3 23 4 15 1 28 -9 36 -28 23 -17 33 14 14 17 -9 30 -24 30
-33z m10 -55 c0 -9 -9 -15 -22 -15 -22 1 -23 1 -4 15 25 19 26 19 26 0z m-6
-50 c15 -11 16 -15 5 -15 -8 0 -24 7 -35 15 -14 11 -15 14 -4 14 8 0 24 -6 34
-14z"/>
<path d="M2720 443 c0 -5 19 -19 42 -33 23 -14 59 -40 80 -59 26 -23 43 -31
55 -26 17 6 17 7 -1 21 -11 8 -26 14 -33 14 -17 0 -17 17 0 23 6 2 -19 18 -57
36 -71 32 -86 36 -86 24z"/>
<path d="M1030 363 c0 -7 6 -16 13 -20 8 -4 22 -20 32 -35 17 -27 45 -38 45
-18 0 6 -4 10 -10 10 -5 0 -25 17 -45 38 -19 20 -35 32 -35 25z"/>
<path d="M817 313 c-4 -3 -7 -13 -7 -22 0 -13 2 -13 13 1 6 9 19 18 27 21 10
4 8 6 -6 6 -11 1 -24 -2 -27 -6z"/>
<path d="M2454 300 c-25 -10 -38 -26 -26 -34 4 -3 21 6 38 19 30 25 25 30 -12
15z"/>
<path d="M0 228 c0 -10 7 -18 17 -18 10 0 67 -25 128 -54 102 -51 112 -58 138
-105 l28 -51 291 0 c265 0 292 2 304 17 12 17 14 17 46 -1 18 -11 30 -15 26
-11 -4 4 -2 15 5 23 10 13 9 14 -1 8 -15 -9 -52 1 -52 15 0 5 11 9 25 9 14 0
25 4 25 9 0 12 -26 21 -63 21 -18 0 -64 7 -102 16 -39 8 -94 17 -123 20 -58 4
-120 32 -170 75 -18 16 -40 30 -50 31 -32 3 -158 8 -314 11 -148 3 -158 3
-158 -15z m543 -84 c49 -27 64 -51 25 -38 -33 9 -69 30 -98 54 l-25 22 26 -6
c14 -3 47 -17 72 -32z m-258 -54 c3 -5 1 -10 -4 -10 -6 0 -11 5 -11 10 0 6 2
10 4 10 3 0 8 -4 11 -10z"/>
<path d="M3116 230 c-16 -3 -35 -15 -44 -27 -14 -22 -14 -23 17 -17 26 6 31 4
31 -14 0 -37 -77 -56 -220 -56 -69 0 -102 -1 -75 -3 71 -6 84 -24 15 -22 -30
2 -70 -1 -88 -5 -21 -5 -68 -1 -128 10 -72 14 -97 15 -106 6 -17 -17 -11 -20
72 -37 99 -21 107 -32 19 -28 -49 2 -78 8 -90 19 -16 15 -17 14 -12 -5 13 -49
29 -51 518 -51 421 0 480 3 445 25 -12 7 -14 45 -2 45 4 0 22 -9 40 -20 l32
-20 0 25 c0 17 -9 29 -28 39 -15 8 -36 23 -46 35 -19 21 -19 21 1 21 11 0 28
-9 38 -20 23 -25 35 -25 35 0 0 11 -11 27 -25 36 -14 9 -25 23 -25 31 0 11 7
13 25 9 20 -5 25 -3 25 12 0 16 -14 18 -198 17 -109 0 -211 -2 -226 -5z"/>
<path d="M0 160 c0 -6 34 -27 75 -47 46 -23 77 -45 81 -58 12 -40 35 -55 83
-54 l46 0 -25 17 c-14 9 -41 33 -60 53 -19 20 -53 42 -75 49 -22 7 -54 21 -71
31 -35 21 -54 24 -54 9z"/>
<path d="M2828 163 c12 -2 30 -2 40 0 9 3 -1 5 -23 4 -22 0 -30 -2 -17 -4z"/>
<path d="M984 102 c26 -34 52 -62 58 -62 19 0 1 -24 -23 -31 -13 -4 14 -7 63
-7 l87 1 -16 23 c-10 16 -24 24 -42 23 l-26 -1 24 -7 c25 -7 42 -31 21 -31
-26 0 -139 90 -140 112 0 4 9 10 21 13 11 4 18 9 16 12 -3 3 -13 0 -23 -5 -13
-7 -25 -5 -42 6 -19 12 -13 0 22 -46z"/>
<path d="M2457 153 c-4 -3 2 -13 14 -21 24 -17 37 -9 19 13 -14 16 -23 19 -33
8z"/>
<path d="M2419 80 c26 -27 53 -50 60 -50 6 0 -11 23 -39 50 -28 28 -54 50 -60
50 -5 0 13 -22 39 -50z"/>
<path d="M0 94 c0 -10 9 -28 21 -40 l21 -22 -21 -7 c-42 -13 -19 -25 47 -25
59 0 68 2 69 19 1 14 -7 21 -33 26 -19 3 -50 20 -69 37 -29 25 -35 27 -35 12z"/>
<path d="M2235 84 c-6 -2 -37 -8 -70 -14 -53 -8 -48 -9 45 -5 123 5 110 3 110
13 0 9 -67 13 -85 6z"/>
<path d="M1247 53 c8 -22 33 -53 44 -53 10 0 -33 69 -43 70 -4 0 -5 -8 -1 -17z"/>
<path d="M1546 25 c8 -19 21 -19 21 0 0 8 -6 15 -13 15 -8 0 -11 -6 -8 -15z"/>
<path d="M1852 26 c13 -5 66 -10 118 -11 52 0 104 -5 115 -9 19 -8 19 -8 4 8
-14 15 -37 18 -138 20 -82 1 -114 -1 -99 -8z"/>
<path d="M2120 30 c-11 -7 -6 -10 22 -10 20 0 40 4 43 10 8 13 -45 13 -65 0z"/>
<path d="M1380 15 c7 -8 20 -15 28 -15 13 0 12 3 -4 15 -25 19 -40 19 -24 0z"/>
</g>
</svg>
