<?xml version="1.0" standalone="no"?>
<!DOCTYPE svg PUBLIC "-//W3C//DTD SVG 20010904//EN"
 "http://www.w3.org/TR/2001/REC-SVG-20010904/DTD/svg10.dtd">
<svg version="1.0" xmlns="http://www.w3.org/2000/svg"
 width="184.000000pt" height="135.000000pt" viewBox="0 0 184.000000 135.000000"
 preserveAspectRatio="xMidYMid meet">

<g transform="translate(0.000000,135.000000) scale(0.100000,-0.100000)"
fill="#000000" stroke="none">
<path d="M432 1278 c-13 -13 -16 -38 -4 -39 4 0 15 -2 24 -4 10 -2 21 1 24 6
3 6 12 2 21 -8 13 -17 13 -17 4 3 -6 12 -18 24 -26 28 -11 4 -14 2 -9 -6 4 -7
3 -8 -4 -4 -6 4 -9 13 -5 21 6 18 -8 20 -25 3z"/>
<path d="M1381 1277 c-6 -8 -7 -17 -3 -21 4 -4 0 -6 -8 -4 -9 2 -15 -4 -14
-13 1 -9 -6 -16 -15 -15 -9 0 -15 -5 -13 -12 1 -8 -1 -11 -6 -8 -12 7 -54 -38
-50 -55 2 -8 -3 -13 -11 -11 -16 3 -63 -37 -56 -49 8 -12 -24 -4 -37 9 -13 13
-38 16 -38 5 0 -4 10 -18 23 -31 12 -14 17 -22 10 -19 -6 4 -13 3 -15 -3 -2
-6 -53 23 -113 64 l-111 74 -104 -75 c-110 -78 -155 -106 -132 -82 15 16 16
33 0 23 -13 -8 -3 12 19 38 21 23 -1 31 -22 8 -20 -22 -50 -26 -61 -8 -5 7 -3
8 5 3 9 -5 9 -2 -1 14 -7 11 -19 20 -26 18 -8 -1 -21 9 -31 23 -12 18 -12 22
-2 16 10 -7 12 -5 7 3 -5 7 -14 10 -22 7 -7 -3 -16 0 -20 6 -4 7 -3 8 4 4 17
-10 15 9 -3 24 -8 6 -19 9 -24 6 -5 -4 -12 -2 -16 3 -5 9 -45 11 -45 3 0 -14
145 -150 154 -145 6 3 8 3 4 -2 -4 -4 -3 -14 3 -22 9 -10 7 -18 -6 -33 -22
-25 -14 -36 15 -20 30 16 40 1 13 -17 -13 -9 -23 -19 -23 -23 0 -15 125 -63
203 -76 87 -15 152 -12 250 12 53 14 163 57 176 70 3 3 -8 16 -24 30 -17 14
-23 22 -15 18 8 -4 22 -13 32 -21 9 -8 18 -11 21 -6 7 12 -29 74 -38 65 -5 -4
-5 -1 -1 6 4 7 12 10 17 6 5 -3 16 0 24 6 18 15 20 34 3 24 -7 -4 -8 -3 -4 5
4 6 11 9 15 6 5 -2 17 5 27 17 12 14 14 19 4 13 -9 -5 -12 -5 -7 1 8 9 12 10
38 13 6 0 9 8 6 16 -4 8 -1 17 5 21 7 4 8 3 4 -4 -11 -19 2 -14 24 8 11 11 19
24 18 29 -2 5 -1 9 2 8 3 0 15 5 28 12 23 12 23 13 6 32 -20 23 -28 24 -43 6z"/>
<path d="M668 830 c-21 -17 -38 -35 -38 -39 0 -4 26 -12 58 -19 81 -17 93 -27
62 -51 -28 -22 -27 -25 19 -44 l34 -14 -89 -87 c-48 -47 -93 -86 -98 -86 -6 0
23 35 64 78 58 60 53 56 -22 -17 -53 -52 -95 -98 -92 -103 3 -4 19 -8 35 -8
26 0 47 17 131 105 l100 105 30 -16 c32 -16 58 -13 58 8 0 7 -22 35 -49 63
-27 27 -62 73 -78 100 -37 64 -70 71 -125 25z"/>
<path d="M1075 833 c-3 -16 -30 -52 -59 -81 -57 -55 -96 -124 -96 -168 0 -25
2 -24 43 21 l42 47 104 -106 c91 -92 109 -106 138 -106 44 0 43 23 -3 45 -37
17 -168 136 -184 166 -8 14 -2 21 32 37 l42 19 -29 15 c-27 15 -27 16 -9 26
11 6 47 16 82 23 34 7 62 16 62 19 0 3 -20 21 -45 38 -60 42 -111 44 -120 5z"/>
<path d="M802 833 c2 -10 16 -22 31 -27 22 -8 33 -6 57 12 l30 23 30 -23 c24
-18 35 -20 57 -12 15 5 29 17 31 27 3 15 -8 17 -118 17 -110 0 -121 -2 -118
-17z"/>
<path d="M1145 590 c10 -11 20 -20 23 -20 3 0 -3 9 -13 20 -10 11 -20 20 -23
20 -3 0 3 -9 13 -20z"/>
<path d="M690 360 c0 -5 9 -10 20 -10 17 0 20 -7 20 -45 0 -33 4 -45 15 -45
11 0 15 12 15 45 0 38 3 45 20 45 11 0 20 5 20 10 0 6 -25 10 -55 10 -30 0
-55 -4 -55 -10z"/>
<path d="M846 363 c-3 -3 -6 -28 -6 -55 0 -36 4 -48 15 -48 8 0 15 9 15 20 0
16 7 20 30 20 23 0 30 -4 30 -20 0 -11 7 -20 16 -20 12 0 14 10 12 53 -3 51
-20 68 -26 27 -5 -28 -62 -29 -62 -1 0 21 -13 34 -24 24z"/>
<path d="M1000 315 l0 -55 61 0 c37 0 58 4 54 10 -3 6 -26 10 -51 10 -28 0
-43 4 -39 10 3 6 19 10 36 10 16 0 29 5 29 10 0 6 -13 10 -30 10 -20 0 -30 5
-30 15 0 11 12 15 46 15 27 0 43 4 39 10 -3 6 -31 10 -61 10 l-54 0 0 -55z"/>
<path d="M50 120 l0 -60 55 0 c65 0 74 17 13 22 -40 3 -43 5 -46 36 -3 32 -3
32 42 32 34 0 46 4 46 15 0 12 -13 15 -55 15 l-55 0 0 -60z"/>
<path d="M220 168 c0 -7 9 -24 20 -38 11 -14 20 -35 20 -47 0 -13 5 -23 10
-23 6 0 10 12 10 26 0 14 9 39 21 56 27 37 17 49 -15 19 l-25 -23 -13 21 c-14
23 -28 28 -28 9z"/>
<path d="M368 153 c-2 -15 -1 -43 1 -60 3 -33 4 -33 58 -33 l54 0 -3 58 -3 57
-52 3 c-50 3 -52 2 -55 -25z m92 -13 c0 -5 -11 -10 -25 -10 -30 0 -34 -17 -5
-22 33 -5 28 -23 -7 -26 -32 -3 -33 -2 -33 32 0 34 2 36 35 36 19 0 35 -4 35
-10z"/>
<path d="M529 173 c0 -4 -1 -30 -2 -58 l-2 -50 58 -3 c35 -2 57 1 57 8 0 5
-20 10 -45 10 -33 0 -45 4 -45 15 0 10 10 15 30 15 17 0 30 5 30 10 0 6 -13
10 -30 10 -46 0 -36 18 13 22 23 2 42 8 42 13 0 12 -105 20 -106 8z"/>
<path d="M680 120 c0 -33 4 -60 10 -60 6 0 10 9 10 19 0 34 22 36 46 6 13 -16
26 -26 30 -22 4 4 2 13 -4 19 -16 16 -15 28 3 28 10 0 15 11 15 35 l0 35 -55
0 -55 0 0 -60z m90 20 c0 -5 -16 -10 -35 -10 -19 0 -35 5 -35 10 0 6 16 10 35
10 19 0 35 -4 35 -10z"/>
<path d="M840 145 c0 -35 0 -35 45 -35 33 0 45 -4 45 -15 0 -11 -12 -15 -45
-15 -25 0 -45 -4 -45 -10 0 -5 25 -10 55 -10 l55 0 0 35 c0 35 0 35 -45 35
-25 0 -45 5 -45 10 0 6 20 10 45 10 33 0 45 4 45 15 0 12 -13 15 -55 15 l-55
0 0 -35z"/>
<path d="M1022 127 c-25 -59 -26 -67 -12 -67 5 0 17 17 26 38 l16 37 11 -24
c9 -19 9 -25 -1 -29 -21 -7 -13 -22 13 -22 15 0 25 6 25 14 0 20 -40 106 -49
106 -4 0 -17 -24 -29 -53z"/>
<path d="M1154 167 c-8 -23 0 -102 11 -102 6 0 11 19 13 43 4 56 22 54 22 -3
0 -25 5 -45 10 -45 6 0 10 20 10 45 0 33 4 45 15 45 11 0 15 -12 15 -45 0 -25
5 -45 10 -45 7 0 10 22 8 58 l-3 57 -53 3 c-38 2 -54 -1 -58 -11z"/>
<path d="M1310 120 l0 -60 55 0 55 0 0 60 c0 33 -4 60 -10 60 -5 0 -10 -23
-10 -51 l0 -50 -32 3 c-32 3 -33 5 -36 51 -4 68 -22 58 -22 -13z"/>
<path d="M1470 120 c0 -33 4 -60 10 -60 6 0 10 9 10 19 0 32 17 33 44 4 14
-15 29 -24 32 -20 4 4 2 13 -4 19 -16 16 -15 28 3 28 10 0 15 11 15 35 l0 35
-55 0 -55 0 0 -60z m90 20 c0 -5 -16 -10 -35 -10 -19 0 -35 5 -35 10 0 6 16
10 35 10 19 0 35 -4 35 -10z"/>
<path d="M1671 167 c-13 -16 -41 -82 -41 -97 0 -23 20 -8 31 25 7 19 16 35 20
35 13 0 20 -33 9 -44 -17 -17 -11 -26 16 -26 29 0 29 12 -1 83 -17 42 -18 42
-34 24z"/>
<path d="M1775 168 c-9 -24 -1 -103 10 -103 14 0 19 95 6 108 -7 7 -12 5 -16
-5z"/>
</g>
</svg>
